<svg width="49" height="49" viewBox="0 0 49 49" fill="none" xmlns="http://www.w3.org/2000/svg">
<path d="M10.5 42.5H38.5C40.7091 42.5 42.5 40.7091 42.5 38.5V10.5C42.5 8.29086 40.7091 6.5 38.5 6.5H10.5C8.29086 6.5 6.5 8.29086 6.5 10.5V38.5C6.5 40.7091 8.29086 42.5 10.5 42.5ZM10.5 42.5L32.5 20.5L42.5 30.5M20.5 17.5C20.5 19.1569 19.1569 20.5 17.5 20.5C15.8431 20.5 14.5 19.1569 14.5 17.5C14.5 15.8431 15.8431 14.5 17.5 14.5C19.1569 14.5 20.5 15.8431 20.5 17.5Z" stroke="#757575" stroke-width="4" stroke-linecap="round" stroke-linejoin="round"/>
</svg>
